<?xml version="1.0" encoding="UTF-8"?>
<svg xmlns="http://www.w3.org/2000/svg" xmlns:xlink="http://www.w3.org/1999/xlink" viewBox="0 0 110 110">
  <defs>
    <style>
      .cls-1 {
        fill: url(#linear-gradient);
      }

      .cls-1, .cls-2, .cls-3, .cls-4 {
        stroke-width: 0px;
      }

      .cls-2 {
        fill: url(#linear-gradient-2);
      }

      .cls-2, .cls-3 {
        opacity: .95;
      }

      .cls-3 {
        fill: #fff;
      }

      .cls-4 {
        fill: url(#linear-gradient-3);
        opacity: .9;
      }
    </style>
    <linearGradient id="linear-gradient" x1="44.84" y1="51.54" x2="65.4" y2="85.98" gradientUnits="userSpaceOnUse">
      <stop offset=".14" stop-color="#ff8e44"/>
      <stop offset=".64" stop-color="#e90e65"/>
      <stop offset=".79" stop-color="#b60a86"/>
      <stop offset="1" stop-color="#6706ba"/>
    </linearGradient>
    <linearGradient id="linear-gradient-2" x1="23.17" y1="22.62" x2="78.49" y2="100.28" gradientUnits="userSpaceOnUse">
      <stop offset=".22" stop-color="#5c1ab7"/>
      <stop offset=".7" stop-color="#4d008c" stop-opacity=".9"/>
      <stop offset="1" stop-color="#2d0c60"/>
    </linearGradient>
    <linearGradient id="linear-gradient-3" x1="29.14" y1="11.52" x2="29.14" y2="43.07" gradientUnits="userSpaceOnUse">
      <stop offset="0" stop-color="#5c1ab7"/>
      <stop offset="1" stop-color="#2d0c60"/>
    </linearGradient>
  </defs>
  <g id="Layer_4" data-name="Layer 4">
    <rect class="cls-3" width="110" height="110" rx="20" ry="20"/>
  </g>
  <g id="Layer_2" data-name="Layer 2">
    <g>
      <path class="cls-1" d="M90.65,58.07c-.28-2.97-1.9-5.69-4.43-7.33l-2.52-1.64-6.14-3.99-14.66-9.54c-3.23-2.1-6.96-3.17-10.67-3.17-3.37,0-6.76.88-9.78,2.62l-3.48,2.01v-9.62c0-10.86-8.81-19.67-19.67-19.67v67.72c0,3.49.93,6.86,2.62,9.78,1.5,2.61,3.62,4.87,6.2,6.57.28.18.56.35.84.52l4.77,2.76,8.72,5.03c3.02,1.75,6.41,2.63,9.78,2.62,3.71,0,7.44-1.06,10.67-3.16l22.51-14.65c3.29-2.14,5.28-5.81,5.28-9.73v-16.22c0-.3-.01-.61-.04-.91ZM69.06,72.12l-11.16,7.26h-11.99c-2.75,0-4.98-2.23-4.98-4.98v-12.92c0-1.78.95-3.42,2.49-4.31l9.76-5.63c1.54-.89,3.44-.89,4.98,0l8.41,4.86c1.54.89,2.49,2.53,2.49,4.31v11.41Z"/>
      <path class="cls-2" d="M33.74,95.09l-4.77-2.76,1.51.87c2,1.16,4.48,1.09,6.42-.17l15.33-9.97,18.8-12.23,15.13-9.84c3.65-2.37,3.78-7.75.18-10.18,2.47,1.65,4.04,4.33,4.32,7.25.03.3.04.6.04.91v17.19c0,3.32-1.69,6.43-4.47,8.24l-23.31,15.17c-3.23,2.1-6.96,3.17-10.67,3.16-3.37,0-6.76-.87-9.78-2.62l-8.72-5.03ZM62.91,35.57c-3.23-2.1-6.96-3.17-10.67-3.17-3.37,0-6.76.88-9.78,2.62l-3.48,2.01v-9.62c0-10.86-8.81-19.67-19.67-19.67v53.18c0,4.52,4.89,7.35,8.81,5.08l10.86-6.27,13.26-7.65,12.66-7.31c3.95-2.28,8.84-2.15,12.66.33l-14.66-9.54Z"/>
      <path class="cls-4" d="M38.97,27.41v9.62l-9.08,5.25c-4.71,2.71-10.59-.68-10.59-6.11V7.74c10.86,0,19.67,8.81,19.67,19.67Z"/>
    </g>
  </g>
</svg>